<svg width="225" height="60" viewBox="0 0 225 60" fill="none" xmlns="http://www.w3.org/2000/svg">
<rect x="1" y="12.0588" width="210" height="43.8824" rx="21.9412" stroke="#AA1100" stroke-width="2"/>
<path d="M23.1394 42.6719L22.3276 43.306L22.9856 44.0987C26.1955 47.9656 30.6959 49.5 34.5 49.5C38.3041 49.5 42.8045 47.9656 46.0144 44.0987L46.6724 43.306L45.8606 42.6719C42.7361 40.2315 38.7941 38.75 34.5 38.75C30.2059 38.75 26.2639 40.2315 23.1394 42.6719ZM18 34.5C18 25.3923 25.3923 18 34.5 18C43.6077 18 51 25.3923 51 34.5C51 43.6077 43.6077 51 34.5 51C25.3923 51 18 43.6077 18 34.5ZM41.625 30.125C41.625 26.1952 38.4298 23 34.5 23C30.5702 23 27.375 26.1952 27.375 30.125C27.375 34.0548 30.5702 37.25 34.5 37.25C38.4298 37.25 41.625 34.0548 41.625 30.125Z" stroke="white" stroke-width="2"/>
<path d="M73.6002 37.768H68.8842L68.1282 40H64.9062L69.4782 27.364H73.0422L77.6142 40H74.3562L73.6002 37.768ZM72.8082 35.392L71.2422 30.766L69.6942 35.392H72.8082ZM73.3482 24.826L69.0102 26.644V24.52L73.3482 22.432V24.826ZM82.0836 31.63C82.4436 31.078 82.8936 30.646 83.4336 30.334C83.9736 30.01 84.5736 29.848 85.2336 29.848V33.106H84.3876C83.6196 33.106 83.0436 33.274 82.6596 33.61C82.2756 33.934 82.0836 34.51 82.0836 35.338V40H79.0056V29.956H82.0836V31.63ZM96.1729 34.816C96.1729 35.104 96.1549 35.404 96.1189 35.716H89.1529C89.2009 36.34 89.3989 36.82 89.7469 37.156C90.1069 37.48 90.5449 37.642 91.0609 37.642C91.8289 37.642 92.3629 37.318 92.6629 36.67H95.9389C95.7709 37.33 95.4649 37.924 95.0209 38.452C94.5889 38.98 94.0429 39.394 93.3829 39.694C92.7229 39.994 91.9849 40.144 91.1689 40.144C90.1849 40.144 89.3089 39.934 88.5409 39.514C87.7729 39.094 87.1729 38.494 86.7409 37.714C86.3089 36.934 86.0929 36.022 86.0929 34.978C86.0929 33.934 86.3029 33.022 86.7229 32.242C87.1549 31.462 87.7549 30.862 88.5229 30.442C89.2909 30.022 90.1729 29.812 91.1689 29.812C92.1409 29.812 93.0049 30.016 93.7609 30.424C94.5169 30.832 95.1049 31.414 95.5249 32.17C95.9569 32.926 96.1729 33.808 96.1729 34.816ZM93.0229 34.006C93.0229 33.478 92.8429 33.058 92.4829 32.746C92.1229 32.434 91.6729 32.278 91.1329 32.278C90.6169 32.278 90.1789 32.428 89.8189 32.728C89.4709 33.028 89.2549 33.454 89.1709 34.006H93.0229ZM97.1847 34.96C97.1847 33.928 97.3767 33.022 97.7607 32.242C98.1567 31.462 98.6907 30.862 99.3627 30.442C100.035 30.022 100.785 29.812 101.613 29.812C102.321 29.812 102.939 29.956 103.467 30.244C104.007 30.532 104.421 30.91 104.709 31.378V29.956H107.787V40H104.709V38.578C104.409 39.046 103.989 39.424 103.449 39.712C102.921 40 102.303 40.144 101.595 40.144C100.779 40.144 100.035 39.934 99.3627 39.514C98.6907 39.082 98.1567 38.476 97.7607 37.696C97.3767 36.904 97.1847 35.992 97.1847 34.96ZM104.709 34.978C104.709 34.21 104.493 33.604 104.061 33.16C103.641 32.716 103.125 32.494 102.513 32.494C101.901 32.494 101.379 32.716 100.947 33.16C100.527 33.592 100.317 34.192 100.317 34.96C100.317 35.728 100.527 36.34 100.947 36.796C101.379 37.24 101.901 37.462 102.513 37.462C103.125 37.462 103.641 37.24 104.061 36.796C104.493 36.352 104.709 35.746 104.709 34.978ZM113.216 34.96C113.216 33.928 113.408 33.022 113.792 32.242C114.188 31.462 114.722 30.862 115.394 30.442C116.066 30.022 116.816 29.812 117.644 29.812C118.304 29.812 118.904 29.95 119.444 30.226C119.996 30.502 120.428 30.874 120.74 31.342V26.68H123.818V40H120.74V38.56C120.452 39.04 120.038 39.424 119.498 39.712C118.97 40 118.352 40.144 117.644 40.144C116.816 40.144 116.066 39.934 115.394 39.514C114.722 39.082 114.188 38.476 113.792 37.696C113.408 36.904 113.216 35.992 113.216 34.96ZM120.74 34.978C120.74 34.21 120.524 33.604 120.092 33.16C119.672 32.716 119.156 32.494 118.544 32.494C117.932 32.494 117.41 32.716 116.978 33.16C116.558 33.592 116.348 34.192 116.348 34.96C116.348 35.728 116.558 36.34 116.978 36.796C117.41 37.24 117.932 37.462 118.544 37.462C119.156 37.462 119.672 37.24 120.092 36.796C120.524 36.352 120.74 35.746 120.74 34.978ZM130.617 40.144C129.633 40.144 128.745 39.934 127.953 39.514C127.173 39.094 126.555 38.494 126.099 37.714C125.655 36.934 125.433 36.022 125.433 34.978C125.433 33.946 125.661 33.04 126.117 32.26C126.573 31.468 127.197 30.862 127.989 30.442C128.781 30.022 129.669 29.812 130.653 29.812C131.637 29.812 132.525 30.022 133.317 30.442C134.109 30.862 134.733 31.468 135.189 32.26C135.645 33.04 135.873 33.946 135.873 34.978C135.873 36.01 135.639 36.922 135.171 37.714C134.715 38.494 134.085 39.094 133.281 39.514C132.489 39.934 131.601 40.144 130.617 40.144ZM130.617 37.48C131.205 37.48 131.703 37.264 132.111 36.832C132.531 36.4 132.741 35.782 132.741 34.978C132.741 34.174 132.537 33.556 132.129 33.124C131.733 32.692 131.241 32.476 130.653 32.476C130.053 32.476 129.555 32.692 129.159 33.124C128.763 33.544 128.565 34.162 128.565 34.978C128.565 35.782 128.757 36.4 129.141 36.832C129.537 37.264 130.029 37.48 130.617 37.48ZM140.708 34.96C140.708 33.928 140.9 33.022 141.284 32.242C141.68 31.462 142.214 30.862 142.886 30.442C143.558 30.022 144.308 29.812 145.136 29.812C145.844 29.812 146.462 29.956 146.99 30.244C147.53 30.532 147.944 30.91 148.232 31.378V29.956H151.31V40H148.232V38.578C147.932 39.046 147.512 39.424 146.972 39.712C146.444 40 145.826 40.144 145.118 40.144C144.302 40.144 143.558 39.934 142.886 39.514C142.214 39.082 141.68 38.476 141.284 37.696C140.9 36.904 140.708 35.992 140.708 34.96ZM148.232 34.978C148.232 34.21 148.016 33.604 147.584 33.16C147.164 32.716 146.648 32.494 146.036 32.494C145.424 32.494 144.902 32.716 144.47 33.16C144.05 33.592 143.84 34.192 143.84 34.96C143.84 35.728 144.05 36.34 144.47 36.796C144.902 37.24 145.424 37.462 146.036 37.462C146.648 37.462 147.164 37.24 147.584 36.796C148.016 36.352 148.232 35.746 148.232 34.978ZM156.615 26.68V40H153.537V26.68H156.615ZM168.763 29.956V40H165.685V38.632C165.373 39.076 164.947 39.436 164.407 39.712C163.879 39.976 163.291 40.108 162.643 40.108C161.875 40.108 161.197 39.94 160.609 39.604C160.021 39.256 159.565 38.758 159.241 38.11C158.917 37.462 158.755 36.7 158.755 35.824V29.956H161.815V35.41C161.815 36.082 161.989 36.604 162.337 36.976C162.685 37.348 163.153 37.534 163.741 37.534C164.341 37.534 164.815 37.348 165.163 36.976C165.511 36.604 165.685 36.082 165.685 35.41V29.956H168.763ZM177.094 29.848C178.27 29.848 179.206 30.232 179.902 31C180.61 31.756 180.964 32.8 180.964 34.132V40H177.904V34.546C177.904 33.874 177.73 33.352 177.382 32.98C177.034 32.608 176.566 32.422 175.978 32.422C175.39 32.422 174.922 32.608 174.574 32.98C174.226 33.352 174.052 33.874 174.052 34.546V40H170.974V29.956H174.052V31.288C174.364 30.844 174.784 30.496 175.312 30.244C175.84 29.98 176.434 29.848 177.094 29.848ZM187.675 40.144C186.691 40.144 185.803 39.934 185.011 39.514C184.231 39.094 183.613 38.494 183.157 37.714C182.713 36.934 182.491 36.022 182.491 34.978C182.491 33.946 182.719 33.04 183.175 32.26C183.631 31.468 184.255 30.862 185.047 30.442C185.839 30.022 186.727 29.812 187.711 29.812C188.695 29.812 189.583 30.022 190.375 30.442C191.167 30.862 191.791 31.468 192.247 32.26C192.703 33.04 192.931 33.946 192.931 34.978C192.931 36.01 192.697 36.922 192.229 37.714C191.773 38.494 191.143 39.094 190.339 39.514C189.547 39.934 188.659 40.144 187.675 40.144ZM187.675 37.48C188.263 37.48 188.761 37.264 189.169 36.832C189.589 36.4 189.799 35.782 189.799 34.978C189.799 34.174 189.595 33.556 189.187 33.124C188.791 32.692 188.299 32.476 187.711 32.476C187.111 32.476 186.613 32.692 186.217 33.124C185.821 33.544 185.623 34.162 185.623 34.978C185.623 35.782 185.815 36.4 186.199 36.832C186.595 37.264 187.087 37.48 187.675 37.48Z" fill="white"/>
</svg>
